<svg width="57" height="35" viewBox="0 0 57 35" fill="none" xmlns="http://www.w3.org/2000/svg">
<path d="M22.5914 34.24L20.2394 24.88H8.76738L6.22338 34L0.079375 33.52L4.30338 21.856L10.7354 1.216L19.3274 0.591998L25.5194 21.136L29.5034 33.184L22.5914 34.24ZM15.0074 6.832H14.3834L10.2554 19.792H18.7994L15.0074 6.832ZM44.2671 34.528C40.7151 34.528 37.7231 33.04 35.2911 30.064C32.8591 27.088 31.6431 23.44 31.6431 19.12C31.6431 13.84 33.0991 9.392 36.0111 5.776C38.9551 2.16 42.5551 0.351998 46.8111 0.351998C48.4751 0.351998 50.0111 0.527998 51.4191 0.879997C52.8591 1.2 53.8831 1.536 54.4911 1.888L55.3551 2.416L52.0911 9.088C51.3551 8.448 50.3151 7.856 48.9711 7.312C47.6271 6.736 46.4111 6.448 45.3231 6.448C43.1151 6.448 41.3391 7.36 39.9951 9.184C38.6831 11.008 38.0271 13.616 38.0271 17.008C38.0271 20.368 38.7151 23.136 40.0911 25.312C41.4671 27.456 43.3391 28.528 45.7071 28.528C47.2431 28.528 48.6351 28.048 49.8831 27.088C51.1311 26.128 52.0111 24.848 52.5231 23.248L56.5071 25.552C55.4511 28.368 53.8351 30.576 51.6591 32.176C49.4831 33.744 47.0191 34.528 44.2671 34.528Z" fill="#53EAD3"/>
</svg>
