<svg width="26" height="32" viewBox="0 0 26 32" fill="none" xmlns="http://www.w3.org/2000/svg">
<path d="M0.49425 19.24L1.00625 13.416H25.5183L25.0063 19.24H0.49425ZM8.30225 5.992C8.30225 4.62667 8.79292 3.432 9.77425 2.408C10.7983 1.34133 11.9929 0.807999 13.3583 0.807999C16.1743 0.807999 17.5823 2.216 17.5823 5.032C17.5823 6.65333 17.0703 7.99733 16.0463 9.064C15.0649 10.1307 13.8916 10.664 12.5263 10.664C11.2036 10.664 10.1583 10.2373 9.39025 9.384C8.66492 8.488 8.30225 7.35733 8.30225 5.992ZM8.30225 27.24C8.30225 25.8747 8.79292 24.68 9.77425 23.656C10.7983 22.5893 11.9929 22.056 13.3583 22.056C16.1743 22.056 17.5823 23.464 17.5823 26.28C17.5823 27.9013 17.0703 29.2453 16.0463 30.312C15.0649 31.3787 13.8916 31.912 12.5263 31.912C11.2036 31.912 10.1583 31.4853 9.39025 30.632C8.66492 29.736 8.30225 28.6053 8.30225 27.24Z" fill="#F08080"/>
</svg>
