<svg width="46" height="43" viewBox="0 0 46 43" fill="none" xmlns="http://www.w3.org/2000/svg">
<path d="M10.6974 3.64C13.0334 3.64 14.9214 4.552 16.3614 6.376C17.8334 8.168 18.5694 10.52 18.5694 13.432C18.5694 17.112 17.6894 20.024 15.9294 22.168C14.2014 24.28 11.8174 25.336 8.77738 25.336C6.47338 25.336 4.58538 24.424 3.11338 22.6C1.64138 20.776 0.905375 18.28 0.905375 15.112C0.905375 11.944 1.81738 9.24 3.64138 7C5.49738 4.76 7.84938 3.64 10.6974 3.64ZM9.88138 21.688C11.2574 21.688 12.2014 21.208 12.7134 20.248C13.2254 19.256 13.4814 17.448 13.4814 14.824C13.4814 12.168 13.2094 10.344 12.6654 9.352C12.1534 8.328 11.1934 7.816 9.78538 7.816C8.40938 7.816 7.43338 8.28 6.85738 9.208C6.28138 10.136 5.99338 11.848 5.99338 14.344C5.99338 16.84 6.29738 18.696 6.90538 19.912C7.54538 21.096 8.53738 21.688 9.88138 21.688ZM37.2414 15.448C39.5774 15.448 41.4654 16.36 42.9054 18.184C44.3774 19.976 45.1134 22.328 45.1134 25.24C45.1134 28.92 44.2334 31.832 42.4734 33.976C40.7454 36.088 38.3614 37.144 35.3214 37.144C33.0174 37.144 31.1294 36.232 29.6574 34.408C28.1854 32.584 27.4494 30.088 27.4494 26.92C27.4494 23.752 28.3614 21.048 30.1854 18.808C32.0414 16.568 34.3934 15.448 37.2414 15.448ZM36.4254 33.496C37.8014 33.496 38.7454 33.016 39.2574 32.056C39.7694 31.064 40.0254 29.256 40.0254 26.632C40.0254 23.976 39.7534 22.152 39.2094 21.16C38.6974 20.136 37.7374 19.624 36.3294 19.624C34.9534 19.624 33.9774 20.088 33.4014 21.016C32.8254 21.944 32.5374 23.656 32.5374 26.152C32.5374 28.648 32.8414 30.504 33.4494 31.72C34.0894 32.904 35.0814 33.496 36.4254 33.496ZM14.2974 42.712L10.5054 41.176L30.7134 0.615999L34.5054 2.152L14.2974 42.712Z" fill="#53EAD3"/>
</svg>
